<svg width="11" height="7" viewBox="0 0 11 7" fill="none" xmlns="http://www.w3.org/2000/svg">
<path fill-rule="evenodd" clip-rule="evenodd" d="M1.88558 1.02813C1.53845 0.680996 0.975633 0.680996 0.6285 1.02813C0.281367 1.37526 0.281368 1.93807 0.6285 2.28521L5.0122 6.66891C5.0173 6.67426 5.02247 6.67957 5.02773 6.68482C5.13696 6.79405 5.26754 6.86891 5.40604 6.9094C5.70783 6.99784 6.04731 6.92303 6.28535 6.68498C6.29246 6.67788 6.29942 6.67068 6.30624 6.6634L10.6846 2.28505C11.0317 1.93792 11.0317 1.3751 10.6846 1.02797C10.3375 0.680836 9.77464 0.680837 9.42751 1.02797L5.65646 4.79901L1.88558 1.02813Z" fill="#191919"/>
</svg>
