<svg width="26" height="22" viewBox="0 0 26 22" fill="none" xmlns="http://www.w3.org/2000/svg">
<path fill-rule="evenodd" clip-rule="evenodd" d="M9.96286 17.2478C14.1099 17.2478 17.4321 13.9231 17.4321 9.8707C17.4321 5.81827 14.1099 2.49365 9.96286 2.49365C5.81583 2.49365 2.49365 5.81827 2.49365 9.8707C2.49365 13.9231 5.81583 17.2478 9.96286 17.2478ZM9.96286 19.7414C15.4652 19.7414 19.9257 15.3221 19.9257 9.8707C19.9257 4.41926 15.4652 0 9.96286 0C4.46052 0 0 4.41926 0 9.8707C0 15.3221 4.46052 19.7414 9.96286 19.7414Z" fill="#191919"/>
<path fill-rule="evenodd" clip-rule="evenodd" d="M16.8641 14.9642C17.2893 14.4226 18.0762 14.3243 18.6217 14.7446L24.2698 19.0969C24.8153 19.5173 24.9127 20.2971 24.4875 20.8387C24.0623 21.3803 23.2755 21.4787 22.73 21.0584L17.0818 16.706C16.5364 16.2857 16.4389 15.5059 16.8641 14.9642Z" fill="#191919"/>
</svg>
