<svg width="267" height="27" viewBox="0 0 267 27" fill="none" xmlns="http://www.w3.org/2000/svg">
<path d="M24.0643 19.9113C23.8426 20.011 23.6467 20.1602 23.4914 20.3474C22.8863 21.0258 22.0865 21.5 21.2017 21.7051C20.3168 21.9102 19.3903 21.836 18.5492 21.4928C17.7081 21.1495 16.9937 20.5541 16.5039 19.7881C16.0141 19.0221 15.7731 18.1231 15.8137 17.2144C15.8322 16.9835 15.934 16.7673 16.1002 16.6062C16.6961 16.0553 17.3492 15.5733 17.9222 15.011C18.1378 14.7745 18.2879 14.4857 18.3577 14.1732C18.541 13.4502 17.4065 12.6468 16.719 12.6354C15.5731 12.6354 14.4271 12.578 13.2812 12.6354C12.9309 12.6427 12.5911 12.7563 12.3067 12.9612C12.0222 13.1661 11.8066 13.4527 11.6884 13.783C11.4363 14.4716 11.9176 14.9306 12.3874 15.2864C12.8572 15.6421 13.4416 16.1471 13.9573 16.6062C14.0198 16.659 14.0713 16.7237 14.1086 16.7966C14.146 16.8695 14.1686 16.9491 14.175 17.0308C14.2001 17.4761 14.1731 17.9229 14.0948 18.362C13.9404 19.1541 13.5626 19.8853 13.0061 20.469C12.4497 21.0527 11.7379 21.4645 10.955 21.6557C10.1579 21.8953 9.30799 21.8946 8.51124 21.6538C7.71449 21.413 7.00613 20.9427 6.47443 20.3015C6.0619 19.8654 5.58061 19.7966 5.23684 20.1179C4.89306 20.4392 4.89306 20.9212 5.23684 21.3803C6.19641 22.4889 7.5321 23.2022 8.986 23.3823C10.4399 23.5625 11.9089 23.1967 13.1093 22.3558C13.7886 21.8009 14.4281 21.1988 15.023 20.554C15.5785 21.4757 16.3748 22.228 17.326 22.7296C18.2772 23.2311 19.3472 23.463 20.4203 23.4001C21.2502 23.3825 22.0663 23.1846 22.8122 22.82C23.5581 22.4554 24.2161 21.9328 24.7404 21.2885C24.8739 21.157 24.9573 20.983 24.9762 20.7964C24.995 20.6099 24.9481 20.4226 24.8436 20.2671C24.77 20.131 24.6541 20.0226 24.5135 19.9584C24.3729 19.8942 24.2152 19.8777 24.0643 19.9113Z" fill="#31451B"/>
<path d="M16.0429 23.3887C15.3897 23.3887 14.748 23.3887 14.0948 23.3887C13.883 23.4005 13.6843 23.4948 13.5409 23.6513C13.3974 23.8077 13.3207 24.0141 13.327 24.2264C13.327 24.4486 13.4152 24.6617 13.572 24.8188C13.7289 24.9759 13.9417 25.0642 14.1635 25.0642C14.4729 25.0642 14.7938 25.0642 15.1032 25.0642C15.4126 25.0642 15.6991 25.0642 15.997 25.0642C16.2079 25.0584 16.4086 24.9719 16.5578 24.8225C16.707 24.6731 16.7934 24.4721 16.7992 24.2609C16.807 24.1538 16.7936 24.0463 16.7597 23.9444C16.7259 23.8426 16.6723 23.7484 16.602 23.6674C16.5317 23.5863 16.4462 23.52 16.3502 23.4721C16.2542 23.4243 16.1498 23.3959 16.0429 23.3887Z" fill="#31451B"/>
<path d="M23.331 7.23C23.4161 6.31689 23.1355 5.40732 22.5509 4.70139C21.9664 3.99547 21.1258 3.551 20.214 3.46578C19.3023 3.38056 18.3941 3.66155 17.6892 4.24696C16.9843 4.83236 16.5405 5.67422 16.4554 6.58733H13.4989C13.3405 5.74439 12.8736 4.99105 12.1896 4.4748C11.5056 3.95855 10.6539 3.71658 9.80113 3.79627C8.94837 3.87595 8.15602 4.27155 7.57923 4.90561C7.00244 5.53967 6.68274 6.36652 6.68274 7.22426C6.68274 8.082 7.00244 8.90885 7.57923 9.54291C8.15602 10.177 8.94837 10.5726 9.80113 10.6523C10.6539 10.7319 11.5056 10.49 12.1896 9.97372C12.8736 9.45747 13.3405 8.70412 13.4989 7.86119H16.4898C16.5734 8.7743 17.0157 9.61676 17.7195 10.2032C18.4233 10.7897 19.3309 11.0722 20.2427 10.9885C21.1544 10.9048 21.9957 10.4618 22.5813 9.75692C23.1669 9.05207 23.4489 8.14311 23.3653 7.23H23.331ZM10.107 9.39901C9.6759 9.39901 9.2545 9.27083 8.8962 9.03072C8.53791 8.79062 8.25886 8.44939 8.09441 8.05029C7.92996 7.65119 7.88752 7.21217 7.97246 6.78889C8.0574 6.36561 8.26591 5.9771 8.57155 5.67262C8.87719 5.36813 9.26621 5.16137 9.68931 5.07854C10.1124 4.9957 10.5505 5.04052 10.9482 5.20732C11.3458 5.37412 11.6851 5.65538 11.9229 6.01547C12.1608 6.37556 12.2865 6.79826 12.2843 7.23C12.2843 7.51581 12.2279 7.7988 12.1183 8.0627C12.0087 8.32661 11.8482 8.56623 11.6459 8.7678C11.4435 8.96936 11.2034 9.12889 10.9393 9.23721C10.6752 9.34554 10.3924 9.40053 10.107 9.39901ZM19.8817 9.39901C19.4501 9.40128 19.0276 9.27504 18.6678 9.03632C18.308 8.7976 18.0272 8.45717 17.861 8.05828C17.6948 7.65938 17.6507 7.22001 17.7343 6.79597C17.818 6.37193 18.0256 5.98235 18.3307 5.67671C18.6359 5.37107 19.0249 5.16317 19.4483 5.0794C19.8717 4.99563 20.3105 5.03978 20.7088 5.20624C21.1071 5.37269 21.447 5.65395 21.6854 6.01428C21.9237 6.37462 22.0498 6.79777 22.0475 7.23C22.0445 7.80433 21.8154 8.35428 21.4098 8.76039C21.0043 9.16651 20.4552 9.396 19.8817 9.39901Z" fill="#31451B"/>
<path d="M10.107 8.1023C10.588 8.1023 10.9779 7.71181 10.9779 7.23011C10.9779 6.74841 10.588 6.35791 10.107 6.35791C9.626 6.35791 9.23608 6.74841 9.23608 7.23011C9.23608 7.71181 9.626 8.1023 10.107 8.1023Z" fill="#31451B"/>
<path d="M19.8818 8.1023C20.3628 8.1023 20.7527 7.71181 20.7527 7.23011C20.7527 6.74841 20.3628 6.35791 19.8818 6.35791C19.4008 6.35791 19.0109 6.74841 19.0109 7.23011C19.0109 7.71181 19.4008 8.1023 19.8818 8.1023Z" fill="#31451B"/>
<path d="M1.2605 7.3792C1.05424 7.64315 0.825051 7.89563 0.584407 8.15958L0.435437 8.32025C0.385217 8.22988 0.346709 8.13347 0.320845 8.03334C0.320845 7.6202 0.320845 7.21853 0.320845 6.81686C0.252101 5.83876 0.252101 4.85703 0.320845 3.87893C0.353891 3.14993 0.649543 2.4576 1.15307 1.93012C1.6566 1.40263 2.3339 1.0757 3.0596 1.00986C4.1069 0.894992 5.16359 0.894992 6.21089 1.00986C6.6471 1.05024 7.07752 1.13876 7.49432 1.27382H7.56308C5.15925 2.96986 3.03304 5.02953 1.2605 7.3792ZM29.794 6.79391C29.794 7.19558 29.794 7.59725 29.794 8.01039C29.7779 8.10129 29.751 8.18991 29.7138 8.27435L29.5648 8.11368C29.3241 7.84972 29.095 7.59725 28.8887 7.33329C27.0982 4.9797 24.9525 2.91987 22.5288 1.22791H22.609C22.982 1.10944 23.3659 1.0287 23.755 0.986909C24.8023 0.872039 25.859 0.872039 26.9063 0.986909C27.6576 1.02012 28.3696 1.3324 28.9035 1.86283C29.4374 2.39327 29.7548 3.10384 29.794 3.85598C29.857 4.83427 29.857 5.81561 29.794 6.79391Z" fill="#31451B"/>
<path d="M55.921 22.8608C55.0925 23.6343 54.1189 24.2356 53.0567 24.6296C51.9945 25.0236 50.8648 25.2025 49.733 25.156H41.3448V0.619746H49.733C50.8648 0.573272 51.9945 0.752219 53.0567 1.14622C54.1189 1.54021 55.0925 2.14142 55.921 2.915C58.442 5.43978 58.3274 9.18105 58.3274 12.6239C58.3274 16.0668 58.442 20.313 55.921 22.8608ZM54.099 4.75121C53.4633 4.1333 52.7059 3.65495 51.8753 3.34669C51.0446 3.03843 50.1589 2.90704 49.2746 2.96091H43.9576V22.7919H49.2746C50.157 22.8442 51.0405 22.712 51.8691 22.4038C52.6977 22.0955 53.4532 21.618 54.0875 21.0016C55.772 19.2457 55.7033 15.5963 55.7033 12.601C55.7033 9.60567 55.7835 6.50708 54.099 4.75121Z" fill="#31451B"/>
<path d="M79.0686 22.7918C77.395 24.4266 75.1497 25.3415 72.8119 25.3415C70.4741 25.3415 68.2288 24.4266 66.5552 22.7918C64.2633 20.4966 64.2633 18.0751 64.2633 12.8763C64.2633 7.67758 64.2633 5.26757 66.5552 2.96083C68.2288 1.32611 70.4741 0.411133 72.8119 0.411133C75.1497 0.411133 77.395 1.32611 79.0686 2.96083C81.3605 5.25609 81.3605 7.67758 81.3605 12.8763C81.3605 18.0751 81.3605 20.4851 79.0686 22.7918ZM77.0289 4.51013C76.4742 3.95286 75.8152 3.5107 75.0896 3.20901C74.364 2.90731 73.5861 2.75202 72.8004 2.75202C72.0148 2.75202 71.2368 2.90731 70.5112 3.20901C69.7856 3.5107 69.1266 3.95286 68.572 4.51013C67.025 6.09386 66.8531 7.74644 66.8531 12.8763C66.8531 18.0062 67.025 19.6588 68.572 21.2425C69.1266 21.7998 69.7856 22.242 70.5112 22.5437C71.2368 22.8454 72.0148 23.0007 72.8004 23.0007C73.5861 23.0007 74.364 22.8454 75.0896 22.5437C75.8152 22.242 76.4742 21.7998 77.0289 21.2425C78.5759 19.6588 78.7478 18.0062 78.7478 12.8763C78.7478 7.74644 78.5759 6.09386 77.0289 4.51013Z" fill="#31451B"/>
<path d="M102.365 22.5165C101.549 23.3841 100.568 24.0804 99.48 24.5646C98.3921 25.0489 97.2189 25.3115 96.0286 25.3371C94.8384 25.3628 93.6549 25.1509 92.5473 24.7139C91.4396 24.277 90.4298 23.6236 89.5768 22.7919C87.2849 20.4966 87.2849 18.0751 87.2849 12.8764C87.2849 7.67763 87.2849 5.26762 89.5768 2.96088C90.3962 2.13826 91.3722 1.48886 92.447 1.05121C93.5218 0.613562 94.6734 0.396583 95.8335 0.413149C97.9173 0.343136 99.9517 1.0571 101.536 2.4144C103.12 3.77171 104.14 5.67397 104.394 7.74649H101.781C101.593 6.65978 101.11 5.64567 100.386 4.81468C99.6618 3.98369 98.7238 3.36771 97.6742 3.03388C96.6245 2.70005 95.5035 2.66118 94.4333 2.9215C93.3631 3.18182 92.3848 3.73134 91.605 4.51018C90.0581 6.09391 89.8862 7.74649 89.8862 12.8764C89.8862 18.0063 90.0581 19.6933 91.605 21.277C92.1638 21.823 92.8254 22.2523 93.5513 22.5399C94.2772 22.8276 95.053 22.9678 95.8335 22.9526C96.7138 22.9669 97.5865 22.786 98.3888 22.4229C99.1912 22.0598 99.9034 21.5235 100.474 20.8524C101.47 19.5957 101.961 18.0115 101.85 16.4111V14.5978H95.8335V12.3026H104.462V16.1816C104.462 19.0047 103.878 20.8983 102.365 22.5165Z" fill="#31451B"/>
<path d="M125.398 22.5165C124.582 23.3841 123.601 24.0804 122.513 24.5646C121.425 25.0489 120.252 25.3115 119.062 25.3371C117.871 25.3628 116.688 25.1509 115.58 24.7139C114.473 24.277 113.463 23.6236 112.61 22.7919C110.318 20.4966 110.318 18.0751 110.318 12.8764C110.318 7.67763 110.318 5.26762 112.61 2.96088C113.429 2.13826 114.405 1.48886 115.48 1.05121C116.555 0.613562 117.706 0.396583 118.867 0.413149C120.95 0.343136 122.985 1.0571 124.569 2.4144C126.153 3.77171 127.173 5.67397 127.427 7.74649H124.814C124.632 6.65054 124.15 5.62643 123.423 4.78738C122.696 3.94832 121.751 3.32699 120.693 2.99207C119.635 2.65716 118.506 2.6217 117.429 2.88961C116.352 3.15753 115.371 3.71838 114.592 4.51018C113.045 6.09391 112.873 7.74649 112.873 12.8764C112.873 18.0063 113.045 19.6933 114.592 21.277C115.147 21.8313 115.807 22.269 116.533 22.5646C117.259 22.8602 118.037 23.0077 118.821 22.9985C119.691 23.0043 120.553 22.8194 121.345 22.4566C122.137 22.0938 122.84 21.5619 123.404 20.8983C124.4 19.6416 124.891 18.0574 124.78 16.457V14.5978H118.763V12.3026H127.392V16.1816C127.495 19.0047 126.911 20.8983 125.398 22.5165Z" fill="#31451B"/>
<path d="M140.559 15.011V25.1331H137.946V15.011L130.635 0.619751H133.454L139.184 12.36L144.913 0.619751H147.824L140.559 15.011Z" fill="#31451B"/>
<path d="M167.992 25.1331L156.682 7.91866V25.1331H152.969V0.619751H156.407L167.717 17.8342V0.619751H171.43V25.1331H167.992Z" fill="#31451B"/>
<path d="M187.931 25.3397C182.947 25.3397 179.165 21.8968 179.165 16.8702V0.619751H182.878V16.6865C182.878 19.9573 184.872 21.9886 187.931 21.9886C190.991 21.9886 193.019 19.9573 193.019 16.6865V0.619751H196.732V16.8702C196.698 21.9312 192.882 25.3397 187.931 25.3397Z" fill="#31451B"/>
<path d="M212.718 3.95935V25.1331H209.005V3.95935H202.267V0.619751H219.456V3.95935H212.718Z" fill="#31451B"/>
<path d="M238.913 25.1331L233.757 14.8044H229.116V25.1331H225.403V0.619751H234.914C239.555 0.619751 242.512 3.61506 242.512 7.78095C242.571 9.26269 242.117 10.7194 241.228 11.905C240.338 13.0906 239.067 13.9323 237.63 14.288L243.268 25.1331H238.913ZM234.616 3.95935H229.116V11.637H234.616C237.091 11.637 238.776 10.2254 238.776 7.81538C238.776 5.40536 237.091 3.95935 234.616 3.95935Z" fill="#31451B"/>
<path d="M264.009 22.723C262.282 24.4008 259.97 25.339 257.563 25.339C255.157 25.339 252.845 24.4008 251.117 22.723C248.711 20.313 248.745 17.5931 248.745 12.8764C248.745 8.15961 248.745 5.43973 251.117 3.02972C252.845 1.35197 255.157 0.413696 257.563 0.413696C259.97 0.413696 262.282 1.35197 264.009 3.02972C266.415 5.43973 266.301 8.15961 266.301 12.8764C266.301 17.5931 266.415 20.313 264.009 22.723ZM261.19 5.26759C260.712 4.78735 260.144 4.40632 259.519 4.14633C258.894 3.88634 258.223 3.7525 257.546 3.7525C256.869 3.7525 256.199 3.88634 255.573 4.14633C254.948 4.40632 254.38 4.78735 253.902 5.26759C252.756 6.57589 252.458 7.95304 252.458 12.8764C252.458 17.7997 252.699 19.1768 253.902 20.4851C254.38 20.9654 254.948 21.3464 255.573 21.6064C256.199 21.8664 256.869 22.0002 257.546 22.0002C258.223 22.0002 258.894 21.8664 259.519 21.6064C260.144 21.3464 260.712 20.9654 261.19 20.4851C262.336 19.1768 262.634 17.7997 262.634 12.8764C262.634 7.95304 262.416 6.57589 261.19 5.26759Z" fill="#31451B"/>
</svg>
