<svg width="93" height="133" viewBox="0 0 93 133" fill="none" xmlns="http://www.w3.org/2000/svg">
<path d="M73.8725 57.9364C73.2057 58.2466 72.6162 58.7009 72.1468 59.2664C70.3017 61.2837 67.8798 62.6861 65.2092 63.2837C62.5387 63.8812 59.7486 63.6448 57.2171 62.6067C54.6857 61.5686 52.5352 59.7789 51.0572 57.4801C49.5792 55.1813 48.845 52.4846 48.9543 49.7554C49.0116 49.0432 49.3329 48.3779 49.8555 47.8896C51.658 46.2438 53.6426 44.7799 55.4068 43.1054C56.0513 42.3792 56.4972 41.4993 56.7011 40.5507C57.2668 38.3595 53.8248 35.9292 51.7443 35.8909C48.2831 35.8239 44.8124 35.7378 41.3513 35.8909C40.2576 35.9026 39.1951 36.2559 38.3129 36.9012C37.4308 37.5465 36.7733 38.4513 36.4328 39.4886C35.6754 41.5936 37.1327 42.8471 38.5421 44.0336C40.1241 45.3731 41.754 46.6649 43.3359 48.0236C43.7215 48.3543 43.9651 48.8201 44.0167 49.3249C44.0775 50.6076 43.9809 51.8929 43.729 53.1522C43.2474 55.5503 42.0891 57.7612 40.3904 59.5242C38.6918 61.2872 36.5236 62.529 34.1414 63.1033C28.8107 64.5672 24.2853 62.9885 20.5365 59.008C19.2902 57.678 17.8616 57.4771 16.7782 58.4626C15.6948 59.4482 15.7619 60.8738 16.9891 62.29C19.8964 65.6405 23.9446 67.797 28.3518 68.343C32.7591 68.8891 37.2128 67.7859 40.8527 65.2466C42.9812 63.7444 44.6878 61.668 46.6724 59.7926C50.5075 65.5336 55.9341 68.6816 63.0865 68.4041C65.6002 68.3329 68.0691 67.7227 70.3256 66.6149C72.5821 65.5071 74.5733 63.9276 76.164 61.9838C76.5763 61.5963 76.8351 61.0738 76.8932 60.5116C76.9513 59.9494 76.8047 59.3852 76.4804 58.9219C76.2343 58.4748 75.8365 58.1299 75.3585 57.9493C74.8805 57.7686 74.3536 57.7641 73.8725 57.9364Z" fill="#283618"/>
<path d="M49.4626 68.471C47.4971 68.3658 45.5317 68.3753 43.5662 68.471C42.9236 68.5009 42.3185 68.7813 41.8809 69.2519C41.4434 69.7225 41.2085 70.3458 41.2268 70.9875C41.2229 71.3198 41.2858 71.6496 41.4118 71.9573C41.5377 72.265 41.7242 72.5444 41.9601 72.7789C42.1961 73.0135 42.4767 73.1985 42.7855 73.3231C43.0943 73.4476 43.425 73.5091 43.758 73.504C44.7167 73.5518 45.6755 73.504 46.6342 73.504C47.593 73.504 48.4367 73.504 49.338 73.504C49.9833 73.4868 50.5971 73.2213 51.0509 72.763C51.5048 72.3047 51.7636 71.6891 51.7732 71.0449C51.7913 70.7244 51.7459 70.4034 51.6395 70.1005C51.5331 69.7975 51.3678 69.5185 51.1532 69.2794C50.9385 69.0403 50.6787 68.8458 50.3886 68.7071C50.0985 68.5684 49.7838 68.4881 49.4626 68.471Z" fill="#283618"/>
<path d="M71.7729 19.5577C71.766 16.9552 70.7871 14.4487 69.0273 12.5281C67.2676 10.6075 64.8535 9.41061 62.2568 9.17143C59.66 8.93225 57.0672 9.66792 54.985 11.2347C52.9027 12.8015 51.4806 15.0867 50.9965 17.644H41.9266C41.4486 15.0807 40.0283 12.7881 37.9444 11.2156C35.8604 9.64309 33.263 8.90418 30.6615 9.14375C28.0599 9.38331 25.6419 10.5841 23.8814 12.5106C22.1209 14.4371 21.145 16.9504 21.145 19.5577C21.145 22.1651 22.1209 24.6784 23.8814 26.6049C25.6419 28.5314 28.0599 29.7321 30.6615 29.9717C33.263 30.2112 35.8604 29.4723 37.9444 27.8999C40.0283 26.3274 41.4486 24.0347 41.9266 21.4714H50.9965C51.4806 24.0287 52.9027 26.314 54.985 27.8807C57.0672 29.4475 59.66 30.1832 62.2568 29.944C64.8535 29.7048 67.2676 28.508 69.0273 26.5873C70.7871 24.6667 71.766 22.1602 71.7729 19.5577ZM31.6391 26.1407C30.3341 26.1426 29.0578 25.7582 27.9718 25.036C26.8858 24.3138 26.0388 23.2863 25.5381 22.0836C25.0374 20.8808 24.9054 19.5569 25.1588 18.2793C25.4123 17.0017 26.0397 15.8278 26.9619 14.9062C27.884 13.9846 29.0593 13.3567 30.3391 13.1019C31.6189 12.8471 32.9457 12.9769 34.1516 13.4749C35.3575 13.9729 36.3882 14.8166 37.1135 15.8994C37.8387 16.9822 38.2258 18.2553 38.2258 19.5577C38.2258 21.302 37.5322 22.975 36.2972 24.2092C35.0622 25.4435 33.3869 26.1382 31.6391 26.1407ZM61.2937 26.1407C59.989 26.1407 58.7137 25.7547 57.629 25.0313C56.5442 24.3079 55.6987 23.2798 55.1995 22.0769C54.7002 20.874 54.5696 19.5504 54.8241 18.2734C55.0786 16.9964 55.7069 15.8235 56.6294 14.9028C57.5519 13.9822 58.7272 13.3552 60.0068 13.1012C61.2864 12.8472 62.6126 12.9775 63.8179 13.4758C65.0233 13.974 66.0535 14.8178 66.7783 15.9004C67.5031 16.983 67.8899 18.2557 67.8899 19.5577C67.8899 21.3036 67.195 22.9781 65.9579 24.2126C64.7209 25.4472 63.0431 26.1407 61.2937 26.1407Z" fill="#283618"/>
<path d="M31.6392 22.1891C33.0953 22.1891 34.2758 21.011 34.2758 19.5578C34.2758 18.1046 33.0953 16.9265 31.6392 16.9265C30.183 16.9265 29.0026 18.1046 29.0026 19.5578C29.0026 21.011 30.183 22.1891 31.6392 22.1891Z" fill="#283618"/>
<path d="M61.2936 22.1891C62.7497 22.1891 63.9302 21.011 63.9302 19.5578C63.9302 18.1046 62.7497 16.9265 61.2936 16.9265C59.8374 16.9265 58.657 18.1046 58.657 19.5578C58.657 21.011 59.8374 22.1891 61.2936 22.1891Z" fill="#283618"/>
<path d="M4.79348 20.0361C4.17028 20.8303 3.47997 21.5766 2.75131 22.3708L2.28152 22.8779L2.2144 22.7152C2.0707 22.4693 1.97018 22.2008 1.91719 21.9211C1.91719 20.6963 1.8309 19.462 1.77337 18.2564C1.56724 15.3001 1.56724 12.3332 1.77337 9.37696C2.2144 4.59278 5.22492 1.52134 10.2488 0.765443C13.4335 0.406646 16.6471 0.384196 19.8365 0.698464H19.9707C21.2725 0.833883 22.5574 1.09995 23.8057 1.49264L24.0358 1.55005C17.2574 6.1907 11.0446 12.1039 4.79348 20.0361ZM91.2547 18.2564C91.1972 19.4524 91.1397 20.6963 91.1109 21.9211C91.0729 22.1978 90.9886 22.4663 90.8616 22.7152L90.7945 22.8779L90.3343 22.3708C89.6056 21.5766 88.9153 20.8303 88.2825 20.0361C81.9931 12.1039 75.8186 6.1907 68.9922 1.54048L69.2223 1.48307C70.4707 1.09038 71.7555 0.824315 73.0574 0.688896H73.1916C76.381 0.374628 79.5946 0.397078 82.7792 0.755875C87.8032 1.53091 90.8137 4.58321 91.2547 9.36739C91.4485 12.3277 91.4357 15.2979 91.2164 18.2564H91.2547Z" fill="#283618"/>
<path d="M13.4227 102.448C12.7009 103.103 11.8569 103.609 10.9388 103.937C10.0208 104.266 9.04681 104.41 8.07277 104.362H0.834106V83.2447H8.08236C9.0564 83.1967 10.0304 83.3411 10.9484 83.6694C11.8665 83.9978 12.7105 84.5038 13.4323 85.1584C15.6374 87.3591 15.5128 90.5932 15.5128 93.5307C15.5128 96.4682 15.6374 100.248 13.4227 102.448ZM11.8599 86.8424C11.3086 86.3065 10.651 85.8917 9.9294 85.6247C9.2078 85.3578 8.43819 85.2445 7.67009 85.2923H3.0872V102.381H7.67009C8.43277 102.426 9.19649 102.313 9.9128 102.047C10.6291 101.782 11.2824 101.371 11.8311 100.841C13.2884 99.3291 13.2309 96.1811 13.2309 93.6072C13.2309 91.0333 13.3172 88.3542 11.8599 86.8424Z" fill="#283618"/>
<path d="M33.4322 102.381C31.9867 103.791 30.0459 104.58 28.0248 104.58C26.0038 104.58 24.0629 103.791 22.6174 102.381C20.6232 100.401 20.6232 98.3243 20.6232 93.8368C20.6232 89.3492 20.6232 87.2824 22.6174 85.2922C24.0653 83.8871 26.0052 83.101 28.0248 83.101C30.0444 83.101 31.9844 83.8871 33.4322 85.2922C35.4744 87.2824 35.4744 89.3588 35.4744 93.8368C35.4744 98.3148 35.4744 100.401 33.4322 102.381ZM31.6873 86.6318C30.7166 85.6648 29.4011 85.1217 28.0296 85.1217C26.6581 85.1217 25.3426 85.6648 24.3719 86.6318C23.0105 88.0288 22.8859 89.4162 22.8859 93.8368C22.8859 98.2573 23.0297 99.683 24.3719 101.051C25.3426 102.018 26.6581 102.561 28.0296 102.561C29.4011 102.561 30.7166 102.018 31.6873 101.051C33.02 99.683 33.1734 98.2573 33.1734 93.8368C33.1734 89.4162 33.02 88.0288 31.6873 86.6318Z" fill="#283618"/>
<path d="M53.5855 102.152C52.8798 102.9 52.0318 103.5 51.0911 103.917C50.1504 104.334 49.1357 104.56 48.1065 104.581C47.0773 104.603 46.0542 104.419 45.0968 104.042C44.1395 103.664 43.2672 103.099 42.531 102.381C40.5367 100.401 40.5367 98.3244 40.5367 93.8368C40.5367 89.3492 40.5367 87.2825 42.531 85.2923C43.2404 84.5857 44.0843 84.0278 45.0129 83.6515C45.9415 83.2752 46.9362 83.0881 47.9384 83.1011C49.7398 83.0399 51.4989 83.6543 52.8689 84.8232C54.239 85.9921 55.1206 87.6308 55.3401 89.4162H53.087C52.9226 88.4805 52.5043 87.6076 51.8776 86.8926C51.2508 86.1775 50.4396 85.6477 49.5322 85.3606C48.6248 85.0735 47.6559 85.0403 46.7308 85.2644C45.8058 85.4885 44.96 85.9615 44.2855 86.6318C42.9432 88.0001 42.7994 89.4162 42.7994 93.8368C42.7994 98.2574 42.9432 99.7118 44.2855 101.08C44.765 101.557 45.335 101.934 45.9622 102.189C46.5895 102.444 47.2613 102.571 47.9384 102.563C48.7001 102.575 49.455 102.419 50.1494 102.107C50.8438 101.794 51.4606 101.333 51.9556 100.755C52.8157 99.6712 53.2396 98.3064 53.1445 96.9274V95.3199H47.9384V93.3392H55.3976V96.6882C55.3976 99.1185 54.899 100.755 53.5855 102.152Z" fill="#283618"/>
<path d="M73.4989 102.152C72.7933 102.9 71.9453 103.5 71.0045 103.917C70.0638 104.334 69.0492 104.56 68.02 104.581C66.9908 104.603 65.9676 104.419 65.0103 104.042C64.053 103.664 63.1807 103.099 62.4444 102.381C60.4502 100.401 60.4502 98.3244 60.4502 93.8368C60.4502 89.3492 60.4502 87.2825 62.4444 85.2923C63.1538 84.5857 63.9977 84.0278 64.9263 83.6515C65.855 83.2752 66.8496 83.0881 67.8518 83.1011C69.6532 83.0399 71.4123 83.6543 72.7823 84.8232C74.1524 85.9921 75.034 87.6308 75.2535 89.4162H73.0004C72.8313 88.4881 72.4122 87.6234 71.7881 86.9149C71.164 86.2064 70.3584 85.6809 69.4577 85.3947C68.5569 85.1085 67.5952 85.0725 66.6755 85.2904C65.7558 85.5083 64.9129 85.9721 64.2373 86.6318C62.895 88.0001 62.7512 89.4162 62.7512 93.8368C62.7512 98.2574 62.895 99.7118 64.2373 101.08C64.7168 101.557 65.2868 101.934 65.914 102.189C66.5412 102.444 67.2131 102.571 67.8902 102.563C68.6519 102.575 69.4068 102.419 70.1012 102.107C70.7956 101.794 71.4123 101.333 71.9074 100.755C72.7675 99.6712 73.1914 98.3064 73.0963 96.9274V95.3199H67.8518V93.3392H75.311V96.6882C75.311 99.1185 74.7837 100.755 73.4989 102.152Z" fill="#283618"/>
<path d="M86.6051 95.6835V104.4H84.3712V95.6835L78.0433 83.2446H80.4786L85.4737 93.3584L90.4114 83.2446H92.8466L86.6051 95.6835Z" fill="#283618"/>
<path d="M13.1446 131.632L3.98843 117.691V131.603H0.95874V111.864H3.73915L12.8953 125.747V111.864H15.8963V131.632H13.1446Z" fill="#283618"/>
<path d="M29.2423 131.794C25.2059 131.794 22.1475 129.048 22.1475 124.963V111.864H25.1484V124.829C25.1484 127.46 26.7687 129.106 29.2423 129.106C29.8049 129.134 30.367 129.042 30.8906 128.834C31.4142 128.627 31.887 128.31 32.2771 127.904C32.6671 127.499 32.9653 127.014 33.1513 126.483C33.3374 125.953 33.407 125.388 33.3554 124.829V111.864H36.3563V124.963C36.3563 129.048 33.2691 131.794 29.2423 131.794Z" fill="#283618"/>
<path d="M49.3187 114.562V131.632H46.3082V114.562H40.8624V111.864H54.7645V114.562H49.3187Z" fill="#283618"/>
<path d="M70.4979 131.632L66.3273 123.298H62.5785V131.632H59.568V111.864H67.2381C70.9964 111.864 73.3837 114.284 73.3837 117.605C73.4299 118.799 73.0623 119.972 72.3428 120.927C71.6232 121.882 70.5958 122.561 69.4336 122.848L73.9974 131.593L70.4979 131.632ZM67.0272 114.562H62.5785V120.743H67.0272C69.031 120.743 70.3924 119.614 70.3924 117.662C70.3924 115.71 69.031 114.562 67.0272 114.562Z" fill="#283618"/>
<path d="M90.7948 129.689C89.3979 131.04 87.5291 131.796 85.584 131.796C83.6388 131.796 81.77 131.04 80.3731 129.689C78.4556 127.776 78.4556 125.546 78.4556 121.748C78.4556 117.949 78.4556 115.748 80.3731 113.806C81.77 112.455 83.6388 111.7 85.584 111.7C87.5291 111.7 89.3979 112.455 90.7948 113.806C92.7124 115.72 92.7124 117.94 92.7124 121.748C92.7124 125.556 92.7507 127.738 90.7948 129.689ZM88.5226 115.614C88.1366 115.226 87.6774 114.918 87.1714 114.707C86.6654 114.497 86.1226 114.388 85.5744 114.388C85.0262 114.388 84.4834 114.497 83.9774 114.707C83.4714 114.918 83.0121 115.226 82.6262 115.614C81.6674 116.667 81.4565 117.777 81.4565 121.748C81.4565 125.719 81.6482 126.829 82.6262 127.881C83.0121 128.27 83.4714 128.578 83.9774 128.788C84.4834 128.999 85.0262 129.107 85.5744 129.107C86.1226 129.107 86.6654 128.999 87.1714 128.788C87.6774 128.578 88.1366 128.27 88.5226 127.881C89.4813 126.829 89.6827 125.719 89.6827 121.748C89.6827 117.777 89.4909 116.667 88.5226 115.614Z" fill="#283618"/>
</svg>
